<?xml version="1.0" encoding="UTF-8" standalone="no"?>
<svg
   viewBox="0 0 377.95334 377.95334"
   height="377.95334"
   width="377.95334"
   xml:space="preserve"
   id="svg2"
   version="1.1"
   xmlns="http://www.w3.org/2000/svg"
   xmlns:svg="http://www.w3.org/2000/svg"
   xmlns:rdf="http://www.w3.org/1999/02/22-rdf-syntax-ns#"
   xmlns:cc="http://creativecommons.org/ns#"
   xmlns:dc="http://purl.org/dc/elements/1.1/"><metadata
     id="metadata8"><rdf:RDF><cc:Work
         rdf:about=""><dc:format>image/svg+xml</dc:format><dc:type
           rdf:resource="http://purl.org/dc/dcmitype/StillImage" /></cc:Work></rdf:RDF></metadata><defs
     id="defs6" /><g
     transform="matrix(3.8255449,0,0,-3.8255449,-347.12044,728.37416)"
     id="g10"><g
       transform="matrix(1.0852609,0,0,1.0852609,119.24437,103.6975)"
       id="g12"><path
         id="path14"
         style="fill:#231f20;fill-opacity:1;fill-rule:nonzero;stroke:none"
         d="M 0,0 4.566,0.005 V 12.332 L 0,12.333 Z" /></g><g
       transform="matrix(1.0852609,0,0,1.0852609,109.32313,103.6975)"
       id="g16"><path
         id="path18"
         style="fill:#231f20;fill-opacity:1;fill-rule:nonzero;stroke:none"
         d="M 0,0 4.566,0.005 V 12.332 L 0,12.333 Z" /></g><g
       transform="matrix(1.0852609,0,0,1.0852609,159.44873,103.6975)"
       id="g20"><path
         id="path22"
         style="fill:#231f20;fill-opacity:1;fill-rule:nonzero;stroke:none"
         d="M 0,0 4.566,0.005 V 12.332 L 0,12.333 Z" /></g><g
       transform="matrix(1.0852609,0,0,1.0852609,149.52738,103.6975)"
       id="g24"><path
         id="path26"
         style="fill:#231f20;fill-opacity:1;fill-rule:nonzero;stroke:none"
         d="M 0,0 4.566,0.005 V 12.332 L 0,12.333 Z" /></g><g
       transform="translate(119.4461,132.0787)"
       id="g28"><path
         id="path30"
         style="fill:#231f20;fill-opacity:1;fill-rule:nonzero;stroke:none;stroke-width:1.08526"
         d="M -0.19457099,-0.09214622 35.03517,-0.09323142 h 4.963984 l -0.0022,4.97483622 -45.1533671,-0.011938 -0.011938,0.011938 v -0.011938 l 0.00326,-4.96289832 h 4.97158037 z" /></g><g
       transform="matrix(1.0852609,0,0,1.0852609,121.5817,141.95175)"
       id="g32"><path
         id="path34"
         style="fill:#231f20;fill-opacity:1;fill-rule:nonzero;stroke:none"
         d="M 0,0 -0.011,-0.007 H 0 l 4.573,0.002 V 2.974 L 4.572,2.973 4.573,22.494 H 6.848 L 6.843,27.06 h -9.156 v -4.566 h 2.304 z" /></g><g
       transform="matrix(1.0852609,0,0,1.0852609,159.45665,122.05089)"
       id="g36"><path
         id="path38"
         style="fill:#231f20;fill-opacity:1;fill-rule:nonzero;stroke:none"
         d="M 0,0 -0.002,4.572 H -41.619 L -41.616,-0.011 -0.011,0 0,-0.011 Z" /></g><g
       transform="matrix(1.0852609,0,0,1.0852609,129.00792,181.22898)"
       id="g40"><path
         id="path42"
         style="fill:#231f20;fill-opacity:1;fill-rule:nonzero;stroke:none"
         d="M 0,0 H -9.155 L -9.156,-4.566 H 0.005 Z" /></g><g
       transform="matrix(1.0852609,0,0,1.0852609,172.59243,151.78986)"
       id="g44"><path
         id="path46"
         style="fill:#231f20;fill-opacity:1;fill-rule:nonzero;stroke:none"
         d="M 0,0 -0.003,4.397 V 6.37 h -0.003 l -9.121,9.104 v 0.002 l -10e-4,-0.001 -0.002,0.001 -3.23,-3.235 -21.297,-21.312 6.464,-0.002 18.066,18.067 V 9.008 L -4.569,4.45 v -4.467 l -4.574,-0.018 v -9.041 l 4.566,0.005 v 4.459 h 4.582 v -4.462 l 4.566,0.005 v 9.086 z" /></g></g></svg>
